# xmcd
#
# Track frame offsets:
#	187
#	14835
#	26970
#	43117
#	54665
#	69950
#	84410
#	100612
#	120637
#	135592
#	153115
#	168700
#	187287
#	204325
#	217575
#	234740
#	253427
#	268712
#	284960
#	307317
#	329812
#
# Disc length: 4619 seconds
#
# Revision: 1
# Processed by: cddbd v1.5PL3 Copyright (c) Steve Scherf et al.
# Submitted via: CDex 1.50Beta5
#
DISCID=4c120915
DTITLE=ピンク・レディー - ピンク・レディー
DYEAR=1900
DGENRE=
TTITLE0=ペッパー警部
TTITLE1=S・O・S
TTITLE2=カルメン’77
TTITLE3=渚のシンドバット
TTITLE4=ウォンテッド(指名手配)
TTITLE5=UFO
TTITLE6=サンスポー
TTITLE7=モンスター
TTITLE8=透明人間(とうめいにんげん)
TTITLE9=カメレオン・アーミー
TTITLE10=ジパング
TTITLE11=ピンク・タイフーン(In The Navy)
TTITLE12=波乗りパイレーツ
TTITLE13=KISS IN THE DARK
TTITLE14=マンデー・モラリザ・クラブ
TTITLE15=DO YOUR BEST(ドゥ・ユア・ベスト)
TTITLE16=うたかた
TTITLE17=Laste Pretender(ラスト・プリテンダー)
TTITLE18=OH!
TTITLE19=2年目のジンクス
TTITLE20=ポロロッカ
EXTD=
EXTT0=
EXTT1=
EXTT2=
EXTT3=
EXTT4=
EXTT5=
EXTT6=
EXTT7=
EXTT8=
EXTT9=
EXTT10=
EXTT11=
EXTT12=
EXTT13=
EXTT14=
EXTT15=
EXTT16=
EXTT17=
EXTT18=
EXTT19=
EXTT20=
PLAYORDER=
